<!DOCTYPE svg PUBLIC "-//W3C//DTD SVG 1.1//EN" "http://www.w3.org/Graphics/SVG/1.1/DTD/svg11.dtd">
<svg xmlns="http://www.w3.org/2000/svg" xmlns:xlink="http://www.w3.org/1999/xlink" version="1.1" width="7052px" height="1541px" viewBox="-0.5 -0.5 7052 1541" style="background-color: rgb(255, 255, 255);"><defs/><g><path d="M 3665 490 L 3865 490 L 3865 300 L 4048.63 300" fill="none" stroke="#000000" stroke-miterlimit="10" pointer-events="none"/><path d="M 4053.88 300 L 4046.88 303.5 L 4048.63 300 L 4046.88 296.5 Z" fill="#000000" stroke="#000000" stroke-miterlimit="10" pointer-events="none"/><path d="M 3625 530 L 3625 580 L 3195 580 L 3195 346.37" fill="none" stroke="#000000" stroke-miterlimit="10" pointer-events="none"/><path d="M 3195 341.12 L 3198.5 348.12 L 3195 346.37 L 3191.5 348.12 Z" fill="#000000" stroke="#000000" stroke-miterlimit="10" pointer-events="none"/><path d="M 3625 530 L 3625 643.63" fill="none" stroke="#000000" stroke-miterlimit="10" pointer-events="none"/><path d="M 3625 648.88 L 3621.5 641.88 L 3625 643.63 L 3628.5 641.88 Z" fill="#000000" stroke="#000000" stroke-miterlimit="10" pointer-events="none"/><rect x="3585" y="450" width="80" height="80" fill="#ffffff" stroke="#000000" pointer-events="none"/><g fill="#000000" font-family="Helvetica" text-anchor="middle" font-size="12px"><text x="3624.5" y="493.5">json object stacker</text></g><g fill="#000000" font-family="Helvetica" text-anchor="middle" font-size="12px"><text x="3594.5" y="443.5">push object</text></g><g fill="#000000" font-family="Helvetica" text-anchor="middle" font-size="12px"><text x="3554.5" y="513.5">get a part</text></g><g fill="#000000" font-family="Helvetica" text-anchor="middle" font-size="12px"><text x="3664.5" y="553.5">part metadata</text></g><g fill="#000000" font-family="Helvetica" text-anchor="middle" font-size="12px"><text x="3704.5" y="483.5">no more</text></g><path d="M 3625 210 L 3625 443.63" fill="none" stroke="#000000" stroke-miterlimit="10" pointer-events="none"/><path d="M 3625 448.88 L 3621.5 441.88 L 3625 443.63 L 3628.5 441.88 Z" fill="#000000" stroke="#000000" stroke-miterlimit="10" pointer-events="none"/><path d="M 3665 170 L 4095 170 L 4095 253.63" fill="none" stroke="#000000" stroke-miterlimit="10" pointer-events="none"/><path d="M 4095 258.88 L 4091.5 251.88 L 4095 253.63 L 4098.5 251.88 Z" fill="#000000" stroke="#000000" stroke-miterlimit="10" pointer-events="none"/><rect x="3585" y="130" width="80" height="80" fill="#ffffff" stroke="#000000" pointer-events="none"/><g fill="#000000" font-family="Helvetica" text-anchor="middle" font-size="12px"><text x="3624.5" y="173.5">compile composite</text></g><g fill="#000000" font-family="Helvetica" text-anchor="middle" font-size="12px"><text x="3554.5" y="163.5">svg</text></g><path d="M 4135 300 L 4358.63 300" fill="none" stroke="#000000" stroke-miterlimit="10" pointer-events="none"/><path d="M 4363.88 300 L 4356.88 303.5 L 4358.63 300 L 4356.88 296.5 Z" fill="#000000" stroke="#000000" stroke-miterlimit="10" pointer-events="none"/><rect x="4055" y="260" width="80" height="80" fill="#ffffff" stroke="#000000" pointer-events="none"/><g fill="#000000" font-family="Helvetica" text-anchor="middle" font-size="12px"><text x="4094.5" y="303.5">collector</text></g><path d="M 3235 340 L 3235 490 L 3578.63 490" fill="none" stroke="#000000" stroke-miterlimit="10" pointer-events="none"/><path d="M 3583.88 490 L 3576.88 493.5 L 3578.63 490 L 3576.88 486.5 Z" fill="#000000" stroke="#000000" stroke-miterlimit="10" pointer-events="none"/><rect x="3175" y="260" width="80" height="80" fill="#ffffff" stroke="#000000" pointer-events="none"/><g fill="#000000" font-family="Helvetica" text-anchor="middle" font-size="12px"><text x="3214.5" y="303.5">iterator</text></g><path d="M 3665 490 L 3865 490 L 3865 300 L 3261.37 300" fill="none" stroke="#000000" stroke-miterlimit="10" pointer-events="none"/><path d="M 3256.12 300 L 3263.12 296.5 L 3261.37 300 L 3263.12 303.5 Z" fill="#000000" stroke="#000000" stroke-miterlimit="10" pointer-events="none"/><g fill="#000000" font-family="Helvetica" text-anchor="middle" font-size="12px"><text x="4034.5" y="283.5">done</text></g><g fill="#000000" font-family="Helvetica" text-anchor="middle" font-size="12px"><text x="3284.5" y="323.5">done</text></g><g fill="#000000" font-family="Helvetica" text-anchor="middle" font-size="12px"><text x="3269.5" y="373.5">get a part</text></g><g fill="#000000" font-family="Helvetica" text-anchor="middle" font-size="12px"><text x="3159.5" y="363.5">continue</text></g><path d="M 3585 1020 L 2970 1020 L 2970 396.37" fill="none" stroke="#000000" stroke-miterlimit="10" pointer-events="none"/><path d="M 2970 391.12 L 2973.5 398.12 L 2970 396.37 L 2966.5 398.12 Z" fill="#000000" stroke="#000000" stroke-miterlimit="10" pointer-events="none"/><path d="M 3625 1060 L 3625 1140 L 4075 1140 L 4075 346.37" fill="none" stroke="#000000" stroke-miterlimit="10" pointer-events="none"/><path d="M 4075 341.12 L 4078.5 348.12 L 4075 346.37 L 4071.5 348.12 Z" fill="#000000" stroke="#000000" stroke-miterlimit="10" pointer-events="none"/><rect x="3585" y="980" width="80" height="80" fill="#ffffff" stroke="#000000" pointer-events="none"/><g fill="#000000" font-family="Helvetica" text-anchor="middle" font-size="12px"><text x="3624.5" y="1023.5">determine kindType</text></g><g fill="#000000" font-family="Helvetica" text-anchor="middle" font-size="12px"><text x="3564.5" y="963.5">part metadata</text></g><path d="M 2970 310 L 2970 50 L 3525 50 L 3525 170 L 3578.63 170" fill="none" stroke="#000000" stroke-miterlimit="10" pointer-events="none"/><path d="M 3583.88 170 L 3576.88 173.5 L 3578.63 170 L 3576.88 166.5 Z" fill="#000000" stroke="#000000" stroke-miterlimit="10" pointer-events="none"/><rect x="2930" y="310" width="80" height="80" fill="#ffffff" stroke="#000000" pointer-events="none"/><g fill="#000000" font-family="Helvetica" text-anchor="middle" font-size="12px"><text x="2969.5" y="353.5">get file content in repo</text></g><g fill="#000000" font-family="Helvetica" text-anchor="middle" font-size="12px"><text x="3519.5" y="1003.5">schematic metadata</text></g><g fill="#000000" font-family="Helvetica" text-anchor="middle" font-size="12px"><text x="2919.5" y="413.5">git repo metadata</text></g><path d="M 3105 170 L 3165 170 L 3578.63 170" fill="none" stroke="#000000" stroke-miterlimit="10" pointer-events="none"/><path d="M 3583.88 170 L 3576.88 173.5 L 3578.63 170 L 3576.88 166.5 Z" fill="#000000" stroke="#000000" stroke-miterlimit="10" pointer-events="none"/><path d="M 3105 170 L 3215 170 L 3215 253.63" fill="none" stroke="#000000" stroke-miterlimit="10" pointer-events="none"/><path d="M 3215 258.88 L 3211.5 251.88 L 3215 253.63 L 3218.5 251.88 Z" fill="#000000" stroke="#000000" stroke-miterlimit="10" pointer-events="none"/><ellipse cx="3065" cy="170" rx="40" ry="40" fill="#ffffff" stroke="#000000" pointer-events="none"/><g fill="#000000" font-family="Helvetica" text-anchor="middle" font-size="12px"><text x="3064.5" y="173.5">top-level svg</text></g><path d="M 3002.5 280 L 3002.5 206.37" fill="none" stroke="#000000" stroke-miterlimit="10" pointer-events="none"/><path d="M 3002.5 201.12 L 3006 208.12 L 3002.5 206.37 L 2999 208.12 Z" fill="#000000" stroke="#000000" stroke-miterlimit="10" pointer-events="none"/><g fill="#000000" font-family="Helvetica" text-anchor="middle" font-size="12px"><text x="3002" y="293.5">file content</text></g><g fill="#000000" font-family="Helvetica" text-anchor="middle" font-size="12px"><text x="3002" y="193.5">file content</text></g><g fill="#000000" font-family="Helvetica" text-anchor="middle" font-size="12px"><text x="3674.5" y="1083.5">leaf metadata</text></g><path d="M 4445 300 L 4618.63 300" fill="none" stroke="#000000" stroke-miterlimit="10" pointer-events="none"/><path d="M 4623.88 300 L 4616.88 303.5 L 4618.63 300 L 4616.88 296.5 Z" fill="#000000" stroke="#000000" stroke-miterlimit="10" pointer-events="none"/><rect x="4365" y="260" width="80" height="80" fill="#ffffff" stroke="#000000" pointer-events="none"/><g fill="#000000" font-family="Helvetica" text-anchor="middle" font-size="12px"><text x="4404.5" y="303.5">javascript builder</text></g><ellipse cx="4665" cy="300" rx="40" ry="40" fill="#ffffff" stroke="#000000" pointer-events="none"/><g fill="#000000" font-family="Helvetica" text-anchor="middle" font-size="12px"><text x="4664.5" y="303.5">javascript source code</text></g><rect x="3045" y="1270" width="960" height="270" rx="40.5" ry="40.5" fill="#ffffff" stroke="#000000" pointer-events="none"/><g fill="#000000" font-family="Helvetica" text-anchor="middle" font-size="12px"><text x="3524.5" y="1408.5">[{"dir":"build_process/","file":"parts/get_file_content_in_repo.json","kindName":"get file content in repo","ref":"master","repo":"https://github.com/bmfbp/bmfbp.git"},{"dir":"build_process/","file":"parts/parts/iterator.json","kindName":"iterator","ref":"master","repo":"https://github.com/bmfbp/bmfbp.git"},{"dir":"build_process/","file":"parts/compile_composite.json","kindName":"compile composite","ref":"master","repo":"https://github.com/bmfbp/bmfbp.git"},{"dir":"build_process/","file":"parts/json_object_stacker.json","kindName":"json object stacker","ref":"master","repo":"https://github.com/bmfbp/bmfbp.git"},{"dir":"build_process/","file":"parts/determine_kind_type.json","kindName":"determine kind type","ref":"master","repo":"https://github.com/bmfbp/bmfbp.git"},{"dir":"build_process/","file":"parts/collector.json","kindName":"collector","ref":"master","repo":"https://github.com/bmfbp/bmfbp.git"},{"dir":"build_process/","file":"parts/javascript_builder.json","kindName":"javascript builder","ref":"master","repo":"https://github.com/bmfbp/bmfbp.git"},{"dir":"build_process/","file":"parts/fetch_git_repo.json","kindName":"fetch git repo","ref":"master","repo":"https://github.com/bmfbp/bmfbp.git"},{"dir":"build_process/","file":"parts/prepare_temp_directory.json","kindName":"prepare temp directory","ref":"master","repo":"https://github.com/bmfbp/bmfbp.git"}]</text></g><path d="M 3625 730 L 3625 813.63" fill="none" stroke="#000000" stroke-miterlimit="10" pointer-events="none"/><path d="M 3625 818.88 L 3621.5 811.88 L 3625 813.63 L 3628.5 811.88 Z" fill="#000000" stroke="#000000" stroke-miterlimit="10" pointer-events="none"/><rect x="3585" y="650" width="80" height="80" fill="#ffffff" stroke="#000000" pointer-events="none"/><g fill="#000000" font-family="Helvetica" text-anchor="middle" font-size="12px"><text x="3624.5" y="693.5">fetch git repo</text></g><g fill="#000000" font-family="Helvetica" text-anchor="middle" font-size="12px"><text x="3679.5" y="633.5">git repo metadata</text></g><g fill="#000000" font-family="Helvetica" text-anchor="middle" font-size="12px"><text x="3664.5" y="743.5">metadata</text></g><path d="M 4185 980 L 4185 370 L 4405 370 L 4405 346.37" fill="none" stroke="#000000" stroke-miterlimit="10" pointer-events="none"/><path d="M 4405 341.12 L 4408.5 348.12 L 4405 346.37 L 4401.5 348.12 Z" fill="#000000" stroke="#000000" stroke-miterlimit="10" pointer-events="none"/><path d="M 4185 980 L 4185 690 L 3671.37 690" fill="none" stroke="#000000" stroke-miterlimit="10" pointer-events="none"/><path d="M 3666.12 690 L 3673.12 686.5 L 3671.37 690 L 3673.12 693.5 Z" fill="#000000" stroke="#000000" stroke-miterlimit="10" pointer-events="none"/><path d="M 4185 980 L 4185 780 L 3075 780 L 3075 350 L 3016.37 350" fill="none" stroke="#000000" stroke-miterlimit="10" pointer-events="none"/><path d="M 3011.12 350 L 3018.12 346.5 L 3016.37 350 L 3018.12 353.5 Z" fill="#000000" stroke="#000000" stroke-miterlimit="10" pointer-events="none"/><path d="M 4185 980 L 4185 860 L 3671.37 860" fill="none" stroke="#000000" stroke-miterlimit="10" pointer-events="none"/><path d="M 3666.12 860 L 3673.12 856.5 L 3671.37 860 L 3673.12 863.5 Z" fill="#000000" stroke="#000000" stroke-miterlimit="10" pointer-events="none"/><rect x="4145" y="980" width="80" height="80" fill="#ffffff" stroke="#000000" pointer-events="none"/><g fill="#000000" font-family="Helvetica" text-anchor="middle" font-size="12px"><text x="4184.5" y="1023.5">prepare temp directory</text></g><g fill="#000000" font-family="Helvetica" text-anchor="middle" font-size="12px"><text x="3714.5" y="683.5">temp directory</text></g><g fill="#000000" font-family="Helvetica" text-anchor="middle" font-size="12px"><text x="3054.5" y="338.5">temp directory</text></g><g fill="#000000" font-family="Helvetica" text-anchor="middle" font-size="12px"><text x="4454.5" y="358.5">temp directory</text></g><g fill="#000000" font-family="Helvetica" text-anchor="middle" font-size="12px"><text x="4214.5" y="963.5">directory</text></g><path d="M 3645 900 L 3645 973.63" fill="none" stroke="#000000" stroke-miterlimit="10" pointer-events="none"/><path d="M 3645 978.88 L 3641.5 971.88 L 3645 973.63 L 3648.5 971.88 Z" fill="#000000" stroke="#000000" stroke-miterlimit="10" pointer-events="none"/><path d="M 3605 900 L 3605 973.63" fill="none" stroke="#000000" stroke-miterlimit="10" pointer-events="none"/><path d="M 3605 978.88 L 3601.5 971.88 L 3605 973.63 L 3608.5 971.88 Z" fill="#000000" stroke="#000000" stroke-miterlimit="10" pointer-events="none"/><rect x="3585" y="820" width="80" height="80" fill="#ffffff" stroke="#000000" pointer-events="none"/><g fill="#000000" font-family="Helvetica" text-anchor="middle" font-size="12px"><text x="3624.5" y="863.5">get file content in repo</text></g><g fill="#000000" font-family="Helvetica" text-anchor="middle" font-size="12px"><text x="3714.5" y="853.5">temp directory</text></g><g fill="#000000" font-family="Helvetica" text-anchor="middle" font-size="12px"><text x="3679.5" y="803.5">git repo metadata</text></g><g fill="#000000" font-family="Helvetica" text-anchor="middle" font-size="12px"><text x="3684.5" y="923.5">file content</text></g><g fill="#000000" font-family="Helvetica" text-anchor="middle" font-size="12px"><text x="3564.5" y="913.5">metadata</text></g><g fill="#000000" font-family="Helvetica" text-anchor="middle" font-size="12px"><text x="3689.5" y="963.5">file content</text></g><path d="M 4405 80 L 4405 253.63" fill="none" stroke="#000000" stroke-miterlimit="10" pointer-events="none"/><path d="M 4405 258.88 L 4401.5 251.88 L 4405 253.63 L 4408.5 251.88 Z" fill="#000000" stroke="#000000" stroke-miterlimit="10" pointer-events="none"/><ellipse cx="4405" cy="40" rx="40" ry="40" fill="#ffffff" stroke="#000000" pointer-events="none"/><g fill="#000000" font-family="Helvetica" text-anchor="middle" font-size="12px"><text x="4404.5" y="43.5">top-level name</text></g><g fill="#000000" font-family="Helvetica" text-anchor="middle" font-size="12px"><text x="3712" y="163.5">graph as json</text></g><g fill="#000000" font-family="Helvetica" text-anchor="middle" font-size="12px"><text x="4132" y="248.5">composite</text></g><g fill="#000000" font-family="Helvetica" text-anchor="middle" font-size="12px"><text x="4099.5" y="358.5">leaf</text></g><g fill="#000000" font-family="Helvetica" text-anchor="middle" font-size="12px"><text x="4184.5" y="293.5">intermediate code</text></g><g fill="#000000" font-family="Helvetica" text-anchor="middle" font-size="12px"><text x="4314.5" y="318.5">intermediate code</text></g><g fill="#000000" font-family="Helvetica" text-anchor="middle" font-size="12px"><text x="4514.5" y="298.5">javascript source code</text></g><g fill="#000000" font-family="Helvetica" text-anchor="middle" font-size="12px"><text x="4464.5" y="253.5">top-level name</text></g><g fill="#000000" font-family="Helvetica" text-anchor="middle" font-size="12px"><text x="3690.5" y="228.5">parts as json objects</text></g><g fill="#000000" font-family="Helvetica" text-anchor="middle" font-size="12px"><text x="3234.5" y="253.5">start</text></g></g></svg>