<?xml version="1.0" encoding="UTF-8"?>
<!DOCTYPE svg PUBLIC "-//W3C//DTD SVG 1.1//EN" "http://www.w3.org/Graphics/SVG/1.1/DTD/svg11.dtd">
<svg xmlns="http://www.w3.org/2000/svg" xmlns:xlink="http://www.w3.org/1999/xlink" version="1.1" width="7052px" height="1542px" viewBox="-0.5 -0.5 7052 1542" style="background-color: rgb(255, 255, 255);"><defs/><g><path d="M 3666 489.5 L 3866 489.5 L 3866 299.5 L 4049.63 299.5" fill="none" stroke="#000000" stroke-miterlimit="10" pointer-events="none"/><path d="M 4054.88 299.5 L 4047.88 303 L 4049.63 299.5 L 4047.88 296 Z" fill="#000000" stroke="#000000" stroke-miterlimit="10" pointer-events="none"/><path d="M 3626 529.5 L 3626 579.5 L 3196 579.5 L 3196 345.87" fill="none" stroke="#000000" stroke-miterlimit="10" pointer-events="none"/><path d="M 3196 340.62 L 3199.5 347.62 L 3196 345.87 L 3192.5 347.62 Z" fill="#000000" stroke="#000000" stroke-miterlimit="10" pointer-events="none"/><path d="M 3626 529.5 L 3626 643.13" fill="none" stroke="#000000" stroke-miterlimit="10" pointer-events="none"/><path d="M 3626 648.38 L 3622.5 641.38 L 3626 643.13 L 3629.5 641.38 Z" fill="#000000" stroke="#000000" stroke-miterlimit="10" pointer-events="none"/><rect x="3586" y="450" width="80" height="80" fill="#ffffff" stroke="#000000" pointer-events="none"/><g fill="#000000" font-family="Helvetica" text-anchor="middle" font-size="12px"><text x="3624.25" y="492.25">json object stacker</text></g><g fill="#000000" font-family="Helvetica" text-anchor="middle" font-size="12px"><text x="3595.5" y="443.5">push object</text></g><g fill="#000000" font-family="Helvetica" text-anchor="middle" font-size="12px"><text x="3555.5" y="513.5">get a part</text></g><g fill="#000000" font-family="Helvetica" text-anchor="middle" font-size="12px"><text x="3665.5" y="553.5">part metadata</text></g><g fill="#000000" font-family="Helvetica" text-anchor="middle" font-size="12px"><text x="3705.5" y="483.5">no more</text></g><path d="M 3626 209.5 L 3626 443.63" fill="none" stroke="#000000" stroke-miterlimit="10" pointer-events="none"/><path d="M 3626 448.88 L 3622.5 441.88 L 3626 443.63 L 3629.5 441.88 Z" fill="#000000" stroke="#000000" stroke-miterlimit="10" pointer-events="none"/><path d="M 3666 169.5 L 4096 169.5 L 4096 253.13" fill="none" stroke="#000000" stroke-miterlimit="10" pointer-events="none"/><path d="M 4096 258.38 L 4092.5 251.38 L 4096 253.13 L 4099.5 251.38 Z" fill="#000000" stroke="#000000" stroke-miterlimit="10" pointer-events="none"/><rect x="3586" y="130" width="80" height="80" fill="#ffffff" stroke="#000000" pointer-events="none"/><g fill="#000000" font-family="Helvetica" text-anchor="middle" font-size="12px"><text x="3624.25" y="172.25">compile composite</text></g><g fill="#000000" font-family="Helvetica" text-anchor="middle" font-size="12px"><text x="3555.5" y="163.5">svg</text></g><path d="M 4136 299.5 L 4359.63 299.5" fill="none" stroke="#000000" stroke-miterlimit="10" pointer-events="none"/><path d="M 4364.88 299.5 L 4357.88 303 L 4359.63 299.5 L 4357.88 296 Z" fill="#000000" stroke="#000000" stroke-miterlimit="10" pointer-events="none"/><rect x="4056" y="260" width="80" height="80" fill="#ffffff" stroke="#000000" pointer-events="none"/><g fill="#000000" font-family="Helvetica" text-anchor="middle" font-size="12px"><text x="4094.25" y="302.25">collector</text></g><path d="M 3236 339.5 L 3236 489.5 L 3579.63 489.5" fill="none" stroke="#000000" stroke-miterlimit="10" pointer-events="none"/><path d="M 3584.88 489.5 L 3577.88 493 L 3579.63 489.5 L 3577.88 486 Z" fill="#000000" stroke="#000000" stroke-miterlimit="10" pointer-events="none"/><rect x="3176" y="260" width="80" height="80" fill="#ffffff" stroke="#000000" pointer-events="none"/><g fill="#000000" font-family="Helvetica" text-anchor="middle" font-size="12px"><text x="3214.25" y="302.25">iterator</text></g><path d="M 3666 489.5 L 3866 489.5 L 3866 299.5 L 3262.37 299.5" fill="none" stroke="#000000" stroke-miterlimit="10" pointer-events="none"/><path d="M 3257.12 299.5 L 3264.12 296 L 3262.37 299.5 L 3264.12 303 Z" fill="#000000" stroke="#000000" stroke-miterlimit="10" pointer-events="none"/><g fill="#000000" font-family="Helvetica" text-anchor="middle" font-size="12px"><text x="4035.5" y="283.5">done</text></g><g fill="#000000" font-family="Helvetica" text-anchor="middle" font-size="12px"><text x="3285.5" y="323.5">done</text></g><g fill="#000000" font-family="Helvetica" text-anchor="middle" font-size="12px"><text x="3270.5" y="373.5">get a part</text></g><g fill="#000000" font-family="Helvetica" text-anchor="middle" font-size="12px"><text x="3160.5" y="363.5">continue</text></g><path d="M 3586 1019.5 L 2971 1019.5 L 2971 396.37" fill="none" stroke="#000000" stroke-miterlimit="10" pointer-events="none"/><path d="M 2971 391.12 L 2974.5 398.12 L 2971 396.37 L 2967.5 398.12 Z" fill="#000000" stroke="#000000" stroke-miterlimit="10" pointer-events="none"/><path d="M 3626 1059.5 L 3626 1139.5 L 4076 1139.5 L 4076 346.37" fill="none" stroke="#000000" stroke-miterlimit="10" pointer-events="none"/><path d="M 4076 341.12 L 4079.5 348.12 L 4076 346.37 L 4072.5 348.12 Z" fill="#000000" stroke="#000000" stroke-miterlimit="10" pointer-events="none"/><rect x="3586" y="980" width="80" height="80" fill="#ffffff" stroke="#000000" pointer-events="none"/><g fill="#000000" font-family="Helvetica" text-anchor="middle" font-size="12px"><text x="3624.25" y="1022.25">determine kindType</text></g><g fill="#000000" font-family="Helvetica" text-anchor="middle" font-size="12px"><text x="3595.5" y="973.5">part metadata</text></g><path d="M 2971 309.5 L 2971 49.5 L 3526 49.5 L 3526 169.5 L 3579.63 169.5" fill="none" stroke="#000000" stroke-miterlimit="10" pointer-events="none"/><path d="M 3584.88 169.5 L 3577.88 173 L 3579.63 169.5 L 3577.88 166 Z" fill="#000000" stroke="#000000" stroke-miterlimit="10" pointer-events="none"/><rect x="2931" y="310" width="80" height="80" fill="#ffffff" stroke="#000000" pointer-events="none"/><g fill="#000000" font-family="Helvetica" text-anchor="middle" font-size="12px"><text x="2969.25" y="352.25">get file content in repo</text></g><g fill="#000000" font-family="Helvetica" text-anchor="middle" font-size="12px"><text x="3530.5" y="1033.5">schematic metadata</text></g><g fill="#000000" font-family="Helvetica" text-anchor="middle" font-size="12px"><text x="2920.5" y="413.5">git repo metadata</text></g><path d="M 3106 169.5 L 3166 169.5 L 3579.63 169.5" fill="none" stroke="#000000" stroke-miterlimit="10" pointer-events="none"/><path d="M 3584.88 169.5 L 3577.88 173 L 3579.63 169.5 L 3577.88 166 Z" fill="#000000" stroke="#000000" stroke-miterlimit="10" pointer-events="none"/><path d="M 3106 169.5 L 3216 169.5 L 3216 253.13" fill="none" stroke="#000000" stroke-miterlimit="10" pointer-events="none"/><path d="M 3216 258.38 L 3212.5 251.38 L 3216 253.13 L 3219.5 251.38 Z" fill="#000000" stroke="#000000" stroke-miterlimit="10" pointer-events="none"/><ellipse cx="3066" cy="170" rx="40" ry="40" fill="#ffffff" stroke="#000000" pointer-events="none"/><g fill="#000000" font-family="Helvetica" text-anchor="middle" font-size="12px"><text x="3064.25" y="172.25">top-level svg</text></g><g fill="#000000" font-family="Helvetica" text-anchor="middle" font-size="12px"><text x="3003" y="293.5">file content</text></g><g fill="#000000" font-family="Helvetica" text-anchor="middle" font-size="12px"><text x="3646.5" y="1083.5">leaf metadata</text></g><path d="M 4446 299.5 L 4619.63 299.5" fill="none" stroke="#000000" stroke-miterlimit="10" pointer-events="none"/><path d="M 4624.88 299.5 L 4617.88 303 L 4619.63 299.5 L 4617.88 296 Z" fill="#000000" stroke="#000000" stroke-miterlimit="10" pointer-events="none"/><rect x="4366" y="260" width="80" height="80" fill="#ffffff" stroke="#000000" pointer-events="none"/><g fill="#000000" font-family="Helvetica" text-anchor="middle" font-size="12px"><text x="4404.25" y="302.25">javascript builder</text></g><ellipse cx="4666" cy="300" rx="40" ry="40" fill="#ffffff" stroke="#000000" pointer-events="none"/><g fill="#000000" font-family="Helvetica" text-anchor="middle" font-size="12px"><text x="4664.25" y="302.25">javascript source code</text></g><rect x="3046" y="1270" width="960" height="270" rx="40.5" ry="40.5" fill="#ffffff" stroke="#000000" pointer-events="none"/><g fill="#000000" font-family="Helvetica" text-anchor="middle" font-size="12px"><text x="3524.25" y="1407.25">[{"dir":"build_process/","file":"parts/get_file_content_in_repo.json","kindName":"get file content in repo","ref":"master","repo":"https://github.com/bmfbp/bmfbp.git"},{"dir":"build_process/","file":"parts/parts/iterator.json","kindName":"iterator","ref":"master","repo":"https://github.com/bmfbp/bmfbp.git"},{"dir":"build_process/","file":"parts/compile_composite.json","kindName":"compile composite","ref":"master","repo":"https://github.com/bmfbp/bmfbp.git"},{"dir":"build_process/","file":"parts/json_object_stacker.json","kindName":"json object stacker","ref":"master","repo":"https://github.com/bmfbp/bmfbp.git"},{"dir":"build_process/","file":"parts/determine_kind_type.json","kindName":"determine kind type","ref":"master","repo":"https://github.com/bmfbp/bmfbp.git"},{"dir":"build_process/","file":"parts/collector.json","kindName":"collector","ref":"master","repo":"https://github.com/bmfbp/bmfbp.git"},{"dir":"build_process/","file":"parts/javascript_builder.json","kindName":"javascript builder","ref":"master","repo":"https://github.com/bmfbp/bmfbp.git"},{"dir":"build_process/","file":"parts/fetch_git_repo.json","kindName":"fetch git repo","ref":"master","repo":"https://github.com/bmfbp/bmfbp.git"},{"dir":"build_process/","file":"parts/prepare_temp_directory.json","kindName":"prepare temp directory","ref":"master","repo":"https://github.com/bmfbp/bmfbp.git"}]</text></g><path d="M 3626 729.5 L 3626 813.13" fill="none" stroke="#000000" stroke-miterlimit="10" pointer-events="none"/><path d="M 3626 818.38 L 3622.5 811.38 L 3626 813.13 L 3629.5 811.38 Z" fill="#000000" stroke="#000000" stroke-miterlimit="10" pointer-events="none"/><rect x="3586" y="650" width="80" height="80" fill="#ffffff" stroke="#000000" pointer-events="none"/><g fill="#000000" font-family="Helvetica" text-anchor="middle" font-size="12px"><text x="3624.25" y="692.25">fetch git repo</text></g><g fill="#000000" font-family="Helvetica" text-anchor="middle" font-size="12px"><text x="3621.5" y="633.5">git repo metadata</text></g><g fill="#000000" font-family="Helvetica" text-anchor="middle" font-size="12px"><text x="3665.5" y="743.5">metadata</text></g><path d="M 4186 979.5 L 4186 369.5 L 4406 369.5 L 4406 345.87" fill="none" stroke="#000000" stroke-miterlimit="10" pointer-events="none"/><path d="M 4406 340.62 L 4409.5 347.62 L 4406 345.87 L 4402.5 347.62 Z" fill="#000000" stroke="#000000" stroke-miterlimit="10" pointer-events="none"/><path d="M 4186 979.5 L 4186 689.5 L 3672.37 689.5" fill="none" stroke="#000000" stroke-miterlimit="10" pointer-events="none"/><path d="M 3667.12 689.5 L 3674.12 686 L 3672.37 689.5 L 3674.12 693 Z" fill="#000000" stroke="#000000" stroke-miterlimit="10" pointer-events="none"/><path d="M 4186 979.5 L 4186 779.5 L 3076 779.5 L 3076 349.5 L 3017.37 349.5" fill="none" stroke="#000000" stroke-miterlimit="10" pointer-events="none"/><path d="M 3012.12 349.5 L 3019.12 346 L 3017.37 349.5 L 3019.12 353 Z" fill="#000000" stroke="#000000" stroke-miterlimit="10" pointer-events="none"/><path d="M 4186 979.5 L 4186 859.5 L 3672.37 859.5" fill="none" stroke="#000000" stroke-miterlimit="10" pointer-events="none"/><path d="M 3667.12 859.5 L 3674.12 856 L 3672.37 859.5 L 3674.12 863 Z" fill="#000000" stroke="#000000" stroke-miterlimit="10" pointer-events="none"/><rect x="4146" y="980" width="80" height="80" fill="#ffffff" stroke="#000000" pointer-events="none"/><g fill="#000000" font-family="Helvetica" text-anchor="middle" font-size="12px"><text x="4184.25" y="1022.25">prepare temp directory</text></g><g fill="#000000" font-family="Helvetica" text-anchor="middle" font-size="12px"><text x="3715.5" y="683.5">temp directory</text></g><g fill="#000000" font-family="Helvetica" text-anchor="middle" font-size="12px"><text x="3055.5" y="338.5">temp directory</text></g><g fill="#000000" font-family="Helvetica" text-anchor="middle" font-size="12px"><text x="4455.5" y="358.5">temp directory</text></g><g fill="#000000" font-family="Helvetica" text-anchor="middle" font-size="12px"><text x="4215.5" y="963.5">directory</text></g><path d="M 3646 899.5 L 3646 973.13" fill="none" stroke="#000000" stroke-miterlimit="10" pointer-events="none"/><path d="M 3646 978.38 L 3642.5 971.38 L 3646 973.13 L 3649.5 971.38 Z" fill="#000000" stroke="#000000" stroke-miterlimit="10" pointer-events="none"/><path d="M 3606 899.5 L 3606 973.13" fill="none" stroke="#000000" stroke-miterlimit="10" pointer-events="none"/><path d="M 3606 978.38 L 3602.5 971.38 L 3606 973.13 L 3609.5 971.38 Z" fill="#000000" stroke="#000000" stroke-miterlimit="10" pointer-events="none"/><rect x="3586" y="820" width="80" height="80" fill="#ffffff" stroke="#000000" pointer-events="none"/><g fill="#000000" font-family="Helvetica" text-anchor="middle" font-size="12px"><text x="3624.25" y="862.25">get file content in repo</text></g><g fill="#000000" font-family="Helvetica" text-anchor="middle" font-size="12px"><text x="3646.5" y="813.5">git repo metadata</text></g><g fill="#000000" font-family="Helvetica" text-anchor="middle" font-size="12px"><text x="3655.5" y="913.5">file content</text></g><g fill="#000000" font-family="Helvetica" text-anchor="middle" font-size="12px"><text x="3585.5" y="913.5">metadata</text></g><g fill="#000000" font-family="Helvetica" text-anchor="middle" font-size="12px"><text x="3681.5" y="973.5">file content</text></g><path d="M 4406 79.5 L 4406 253.63" fill="none" stroke="#000000" stroke-miterlimit="10" pointer-events="none"/><path d="M 4406 258.88 L 4402.5 251.88 L 4406 253.63 L 4409.5 251.88 Z" fill="#000000" stroke="#000000" stroke-miterlimit="10" pointer-events="none"/><ellipse cx="4406" cy="40" rx="40" ry="40" fill="#ffffff" stroke="#000000" pointer-events="none"/><g fill="#000000" font-family="Helvetica" text-anchor="middle" font-size="12px"><text x="4404.25" y="42.25">top-level name</text></g><g fill="#000000" font-family="Helvetica" text-anchor="middle" font-size="12px"><text x="4133" y="248.5">composite</text></g><g fill="#000000" font-family="Helvetica" text-anchor="middle" font-size="12px"><text x="4100.5" y="358.5">leaf</text></g><g fill="#000000" font-family="Helvetica" text-anchor="middle" font-size="12px"><text x="4185.5" y="293.5">intermediate code</text></g><g fill="#000000" font-family="Helvetica" text-anchor="middle" font-size="12px"><text x="4315.5" y="318.5">intermediate code</text></g><g fill="#000000" font-family="Helvetica" text-anchor="middle" font-size="12px"><text x="4515.5" y="298.5">javascript source code</text></g><g fill="#000000" font-family="Helvetica" text-anchor="middle" font-size="12px"><text x="4415.5" y="248.5">top-level name</text></g><g fill="#000000" font-family="Helvetica" text-anchor="middle" font-size="12px"><text x="3646.5" y="223.5">parts as json objects</text></g><g fill="#000000" font-family="Helvetica" text-anchor="middle" font-size="12px"><text x="3235.5" y="253.5">start</text></g><g fill="#000000" font-family="Helvetica" text-anchor="middle" font-size="12px"><text x="3715.5" y="853.5">temp directory</text></g><g fill="#000000" font-family="Helvetica" text-anchor="middle" font-size="12px"><text x="3705.5" y="163.5">graph as json</text></g><path d="M 2636 599.5 L 2756 599.5 L 2756 649.5 L 2716 649.5 L 2696 679.5 L 2696 649.5 L 2636 649.5 Z" fill="#ffffff" stroke="#000000" stroke-miterlimit="10" pointer-events="none"/><g fill="#000000" font-family="Helvetica" text-anchor="middle" font-size="12px"><text x="2694.25" y="626.75">Sample comment</text></g></g></svg>
