<!DOCTYPE svg PUBLIC "-//W3C//DTD SVG 1.1//EN" "http://www.w3.org/Graphics/SVG/1.1/DTD/svg11.dtd">
<svg xmlns="http://www.w3.org/2000/svg" xmlns:xlink="http://www.w3.org/1999/xlink" version="1.1" width="2364px" height="841px" viewBox="-0.5 -0.5 2364 841" style="background-color: rgb(255, 255, 255);"><defs/><g><path d="M 1021 40 L 1194.63 40" fill="none" stroke="#000000" stroke-miterlimit="10" pointer-events="none"/><path d="M 1199.88 40 L 1192.88 43.5 L 1194.63 40 L 1192.88 36.5 Z" fill="#000000" stroke="#000000" stroke-miterlimit="10" pointer-events="none"/><path d="M 981 80 L 981 213.63" fill="none" stroke="#000000" stroke-miterlimit="10" pointer-events="none"/><path d="M 981 218.88 L 977.5 211.88 L 981 213.63 L 984.5 211.88 Z" fill="#000000" stroke="#000000" stroke-miterlimit="10" pointer-events="none"/><rect x="941" y="0" width="80" height="80" fill="#ffffff" stroke="#000000" pointer-events="none"/><g fill="#000000" font-family="Helvetica" text-anchor="middle" font-size="12px"><text x="980.5" y="43.5">split diagram</text></g><path d="M 751 40 L 934.63 40" fill="none" stroke="#000000" stroke-miterlimit="10" pointer-events="none"/><path d="M 939.88 40 L 932.88 43.5 L 934.63 40 L 932.88 36.5 Z" fill="#000000" stroke="#000000" stroke-miterlimit="10" pointer-events="none"/><g fill="#000000" font-family="Helvetica" text-anchor="middle" font-size="12px"><text x="905.5" y="33.5">svg content</text></g><g fill="#000000" font-family="Helvetica" text-anchor="middle" font-size="12px"><text x="1045.5" y="93.5">metadata as json array</text></g><g fill="#000000" font-family="Helvetica" text-anchor="middle" font-size="12px"><text x="1050.5" y="33.5">diagram</text></g><path d="M 1281 40 L 1404.63 40" fill="none" stroke="#000000" stroke-miterlimit="10" pointer-events="none"/><path d="M 1409.88 40 L 1402.88 43.5 L 1404.63 40 L 1402.88 36.5 Z" fill="#000000" stroke="#000000" stroke-miterlimit="10" pointer-events="none"/><rect x="1201" y="0" width="80" height="80" fill="#ffffff" stroke="#000000" pointer-events="none"/><g fill="#000000" font-family="Helvetica" text-anchor="middle" font-size="12px"><text x="1240.5" y="43.5">compile one diagram</text></g><g fill="#000000" font-family="Helvetica" text-anchor="middle" font-size="12px"><text x="1175.5" y="33.5">diagram</text></g><ellipse cx="711" cy="40" rx="40" ry="40" fill="#ffffff" stroke="#000000" pointer-events="none"/><g fill="#000000" font-family="Helvetica" text-anchor="middle" font-size="12px"><text x="710.5" y="43.5">svg</text></g><g fill="#000000" font-family="Helvetica" text-anchor="middle" font-size="12px"><text x="960.5" y="203.5">json</text></g><g fill="#000000" font-family="Helvetica" text-anchor="middle" font-size="12px"><text x="1000.5" y="313.5">objects</text></g><path d="M 981 300 L 981 453.63" fill="none" stroke="#000000" stroke-miterlimit="10" pointer-events="none"/><path d="M 981 458.88 L 977.5 451.88 L 981 453.63 L 984.5 451.88 Z" fill="#000000" stroke="#000000" stroke-miterlimit="10" pointer-events="none"/><rect x="941" y="220" width="80" height="80" fill="#ffffff" stroke="#000000" pointer-events="none"/><g fill="#000000" font-family="Helvetica" text-anchor="middle" font-size="12px"><text x="980.5" y="263.5">json array splitter</text></g><ellipse cx="981" cy="500" rx="40" ry="40" fill="#ffffff" stroke="#000000" pointer-events="none"/><g fill="#000000" font-family="Helvetica" text-anchor="middle" font-size="12px"><text x="980.5" y="503.5">parts as json objects</text></g><g fill="#000000" font-family="Helvetica" text-anchor="middle" font-size="12px"><text x="1320.5" y="33.5">graph as json</text></g><ellipse cx="1451" cy="40" rx="40" ry="40" fill="#ffffff" stroke="#000000" pointer-events="none"/><g fill="#000000" font-family="Helvetica" text-anchor="middle" font-size="12px"><text x="1450.5" y="43.5">graph as json</text></g><rect x="691" y="610" width="980" height="230" rx="34.5" ry="34.5" fill="#ffffff" stroke="#000000" pointer-events="none"/><g fill="#000000" font-family="Helvetica" text-anchor="middle" font-size="12px"><text x="1180.5" y="728.5">[{"dir":"build_process/","file":"parts/split_diagram.json","kindName":"split diagram","ref":"master","repo":"https://github.com/bmfbp/bmfbp.git"},{"dir":"build_process/","file":"parts/compile_one_diagram.json","kindName":"compile one diagram","ref":"master","repo":"https://github.com/bmfbp/bmfbp.git"},{"dir":"build_process/","file":"parts/json_array_splitter.json","kindName":"json array splitter","ref":"master","repo":"https://github.com/bmfbp/bmfbp.git"}]</text></g></g></svg>