<!DOCTYPE svg PUBLIC "-//W3C//DTD SVG 1.1//EN" "http://www.w3.org/Graphics/SVG/1.1/DTD/svg11.dtd">
<svg xmlns="http://www.w3.org/2000/svg" xmlns:xlink="http://www.w3.org/1999/xlink" version="1.1" width="2274px" height="961px" viewBox="-0.5 -0.5 2274 961" style="background-color: rgb(255, 255, 255);"><defs/><g><path d="M 976 160 L 1149.63 160" fill="none" stroke="#000000" stroke-miterlimit="10" pointer-events="none"/><path d="M 1154.88 160 L 1147.88 163.5 L 1149.63 160 L 1147.88 156.5 Z" fill="#000000" stroke="#000000" stroke-miterlimit="10" pointer-events="none"/><path d="M 936 200 L 936 333.63" fill="none" stroke="#000000" stroke-miterlimit="10" pointer-events="none"/><path d="M 936 338.88 L 932.5 331.88 L 936 333.63 L 939.5 331.88 Z" fill="#000000" stroke="#000000" stroke-miterlimit="10" pointer-events="none"/><rect x="896" y="120" width="80" height="80" fill="#ffffff" stroke="#000000" pointer-events="none"/><g fill="#000000" font-family="Helvetica" text-anchor="middle" font-size="12px"><text x="935.5" y="163.5">split diagram</text></g><path d="M 706 160 L 889.63 160" fill="none" stroke="#000000" stroke-miterlimit="10" pointer-events="none"/><path d="M 894.88 160 L 887.88 163.5 L 889.63 160 L 887.88 156.5 Z" fill="#000000" stroke="#000000" stroke-miterlimit="10" pointer-events="none"/><g fill="#000000" font-family="Helvetica" text-anchor="middle" font-size="12px"><text x="865.5" y="143.5">svg content</text></g><g fill="#000000" font-family="Helvetica" text-anchor="middle" font-size="12px"><text x="865.5" y="223.5">metadata as json array</text></g><g fill="#000000" font-family="Helvetica" text-anchor="middle" font-size="12px"><text x="1005.5" y="153.5">diagram</text></g><path d="M 1236 160 L 1359.63 160" fill="none" stroke="#000000" stroke-miterlimit="10" pointer-events="none"/><path d="M 1364.88 160 L 1357.88 163.5 L 1359.63 160 L 1357.88 156.5 Z" fill="#000000" stroke="#000000" stroke-miterlimit="10" pointer-events="none"/><rect x="1156" y="120" width="80" height="80" fill="#ffffff" stroke="#000000" pointer-events="none"/><g fill="#000000" font-family="Helvetica" text-anchor="middle" font-size="12px"><text x="1195.5" y="163.5">compile one diagram</text></g><g fill="#000000" font-family="Helvetica" text-anchor="middle" font-size="12px"><text x="1135.5" y="153.5">diagram</text></g><ellipse cx="666" cy="160" rx="40" ry="40" fill="#ffffff" stroke="#000000" pointer-events="none"/><g fill="#000000" font-family="Helvetica" text-anchor="middle" font-size="12px"><text x="665.5" y="163.5">svg</text></g><g fill="#000000" font-family="Helvetica" text-anchor="middle" font-size="12px"><text x="915.5" y="323.5">json</text></g><g fill="#000000" font-family="Helvetica" text-anchor="middle" font-size="12px"><text x="955.5" y="433.5">objects</text></g><path d="M 936 420 L 936 573.63" fill="none" stroke="#000000" stroke-miterlimit="10" pointer-events="none"/><path d="M 936 578.88 L 932.5 571.88 L 936 573.63 L 939.5 571.88 Z" fill="#000000" stroke="#000000" stroke-miterlimit="10" pointer-events="none"/><rect x="896" y="340" width="80" height="80" fill="#ffffff" stroke="#000000" pointer-events="none"/><g fill="#000000" font-family="Helvetica" text-anchor="middle" font-size="12px"><text x="935.5" y="383.5">json array splitter</text></g><ellipse cx="936" cy="620" rx="40" ry="40" fill="#ffffff" stroke="#000000" pointer-events="none"/><g fill="#000000" font-family="Helvetica" text-anchor="middle" font-size="12px"><text x="935.5" y="623.5">parts as json objects</text></g><g fill="#000000" font-family="Helvetica" text-anchor="middle" font-size="12px"><text x="1255.5" y="153.5">graph as json</text></g><ellipse cx="1406" cy="160" rx="40" ry="40" fill="#ffffff" stroke="#000000" pointer-events="none"/><g fill="#000000" font-family="Helvetica" text-anchor="middle" font-size="12px"><text x="1405.5" y="163.5">graph as json</text></g><path d="M 1136 10 L 1276 10 L 1276 77 L 1217.6 77 L 1206 130 L 1197.6 77 L 1136 77 Z" fill="#ffffff" stroke="#000000" stroke-miterlimit="10" pointer-events="none"/><g fill="#000000" font-family="Helvetica" text-anchor="middle" font-size="12px"><text x="1205.5" y="47">Paul</text></g><path d="M 876 0 L 1016 0 L 1016 77 L 957.6 77 L 946 130 L 937.6 77 L 876 77 Z" fill="#ffffff" stroke="#000000" stroke-miterlimit="10" pointer-events="none"/><g fill="#000000" font-family="Helvetica" text-anchor="middle" font-size="12px"><text x="945.5" y="42">Paul</text></g><rect x="646" y="730" width="980" height="230" rx="34.5" ry="34.5" fill="#ffffff" stroke="#000000" pointer-events="none"/><g fill="#000000" font-family="Helvetica" text-anchor="middle" font-size="12px"><text x="1135.5" y="848.5">[{"dir":"build_process/","file":"split_diagram.json","kindName":"split diagram","ref":"master","repo":"https://github.com/bmfbp/bmfbp.git"},{"dir":"build_process/","file":"compile_one_diagram.json","kindName":"compile one diagram","ref":"master","repo":"https://github.com/bmfbp/bmfbp.git"},{"dir":"build_process/","file":"json_array_splitter.json","kindName":"json array splitter","ref":"master","repo":"https://github.com/bmfbp/bmfbp.git"}]</text></g></g></svg>